# xmcd
#
# Track frame offsets:
# 150
# 10444
# 21864
# 36178
# 50742
# 62174
# 72528
# 87484
# 99884
# 112131
# 126704
# 138384
# 150459
# 165213
# 175628
#
# Disc length: 2523 seconds
#
#
# Revision: 0
# Processed by: cddbd v1.5.2PL0 Copyright (c) Steve Scherf et al.
# Submitted via: FreeRIP 2.945 
#
DISCID=cf09d90f
DTITLE=Varios - La Nueva Antología del Bolero
DYEAR=1900
DGENRE=Bolero
TTITLE0=Llanto de Luna - Tito Rodriguez
TTITLE1=Martha - Alfredo Kraus
TTITLE2=Este Amor Salvaje - Toña La Negra
TTITLE3=No me platiques - Lucho Gatica
TTITLE4=Que te aradezca que? - Jose Luis Rodriguez
TTITLE5=Te quiero - Alfonso Ortiz
TTITLE6=Vida consentida - Lino Borges
TTITLE7=Solamente una vez - Nat King Cole
TTITLE8=Caminemos - Trio Los Panchos
TTITLE9=Somos - Viviana
TTITLE10=Sigamos pecando - Los Tres Diamantes
TTITLE11=Cuando tu me quieras - Roberto Cantoral
TTITLE12=Se muy bien que vendras - Juan Arvizú
TTITLE13=Un cigarillo, la lluvia y tu - Felipe Pirela
TTITLE14=Toda una vida - Bertha Dupuy
EXTD=
EXTT0=
EXTT1=
EXTT2=
EXTT3=
EXTT4=
EXTT5=
EXTT6=
EXTT7=
EXTT8=
EXTT9=
EXTT10=
EXTT11=
EXTT12=
EXTT13=
EXTT14=
PLAYORDER=
